# xmcd
#
# Track frame offsets:
#  150
#  20705
#  46369
#  69723
#  92692
#  113114
#  132863
#  151533
#
# Disc length: 2394 seconds
#
# Revision: 0
# Processed by: cddbd v1.5.1PL0 Copyright (c) Steve Scherf et al.
# Submitted via: AltoMP3_Maker 3.0
#
DISCID=61095808
DTITLE=Аркадий Хоралов - Странный мир
DYEAR=1900
DGENRE=
TTITLE0=Лишний билет
TTITLE1=Странный мир
TTITLE2=Эдельвейс
TTITLE3=Дождь прошел
TTITLE4=Новогодние игрушки
TTITLE5=Скажи, зачем?
TTITLE6=День и ночь
TTITLE7=Песня без слов
EXTD=
EXTT0=
EXTT1=
EXTT2=
EXTT3=
EXTT4=
EXTT5=
EXTT6=
EXTT7=
PLAYORDER=
